<svg aria-hidden="true" style="position: absolute; width: 0; height: 0; overflow: hidden;" version="1.1" xmlns="http://www.w3.org/2000/svg" xmlns:xlink="http://www.w3.org/1999/xlink">
<defs>

    <symbol id="burger" viewBox="0 0 46 32">
    <path fill="#fff" style="fill: var(--color1, #fff)" d="M0 0v4.571h45.714v-4.571h-45.714zM0 13.714v4.571h45.714v-4.571h-45.714zM0 27.429v4.571h45.714v-4.571h-45.714z"></path>
    </symbol>
    <symbol id="ring" viewBox="0 0 28 32">
    <path d="M13.076-0.582c-1.382 0-2.516 1.12-2.516 2.516v0.335c-4.349 1.12-7.564 5.047-7.564 9.745v3.025c0 2.007-0.407 3.971-1.178 5.804h22.531c-0.771-1.833-1.178-3.796-1.178-5.804v-3.025c0-4.698-3.215-8.625-7.564-9.745v-0.335c0-1.396-1.135-2.516-2.531-2.516zM0.48 23.36c-0.175 0-0.335 0.029-0.495 0.102-0.145 0.058-0.291 0.145-0.407 0.262s-0.218 0.262-0.276 0.422c-0.073 0.145-0.102 0.32-0.102 0.48s0.029 0.335 0.102 0.48c0.058 0.16 0.16 0.305 0.276 0.422s0.262 0.204 0.407 0.262c0.16 0.073 0.32 0.102 0.495 0.102h9.047c-0.145 0.393-0.218 0.829-0.233 1.251 0 1.004 0.407 1.964 1.12 2.676 0.698 0.713 1.673 1.105 2.662 1.105 1.004 0 1.978-0.393 2.676-1.105 0.713-0.713 1.105-1.673 1.105-2.676 0-0.422-0.073-0.858-0.218-1.251h9.047c0.175 0 0.335-0.029 0.495-0.102 0.145-0.058 0.291-0.145 0.407-0.262s0.218-0.262 0.276-0.422c0.073-0.145 0.102-0.32 0.102-0.48s-0.029-0.335-0.102-0.48c-0.058-0.16-0.16-0.305-0.276-0.422s-0.262-0.204-0.407-0.262c-0.16-0.073-0.32-0.102-0.495-0.102h-25.207z"></path>
    </symbol>
    <symbol id="setting" viewBox="0 0 30 32">
    <path d="M11.984 0c-0.768 0-1.424 0.528-1.568 1.28l-0.544 2.752c-1.312 0.496-2.528 1.184-3.6 2.064l-2.624-0.912c-0.72-0.24-1.52 0.048-1.904 0.72l-2.416 4.176c-0.384 0.672-0.24 1.504 0.336 2.016l2.112 1.824c-0.112 0.688-0.176 1.36-0.176 2.080 0 0.704 0.064 1.376 0.176 2.064l-2.112 1.824c-0.576 0.512-0.72 1.344-0.336 2.016l2.416 4.176c0.384 0.672 1.184 0.96 1.904 0.72l2.624-0.912c1.072 0.88 2.288 1.568 3.6 2.064l0.544 2.752c0.144 0.752 0.8 1.296 1.568 1.296h4.832c0.752 0 1.408-0.544 1.568-1.296l0.528-2.752c1.312-0.496 2.528-1.184 3.6-2.064l2.624 0.912c0.72 0.24 1.52-0.048 1.904-0.72l2.416-4.176c0.384-0.672 0.24-1.504-0.336-2.016l-2.112-1.824c0.112-0.688 0.192-1.36 0.192-2.064 0-0.72-0.080-1.392-0.192-2.080l2.112-1.824c0.576-0.512 0.72-1.344 0.336-2.016l-2.416-4.176c-0.384-0.672-1.184-0.96-1.904-0.72l-2.624 0.912c-1.072-0.88-2.288-1.568-3.6-2.064l-0.528-2.752c-0.16-0.752-0.816-1.28-1.568-1.28h-4.832zM14.4 9.6c3.52 0 6.4 2.864 6.4 6.4 0 3.52-2.88 6.4-6.4 6.4-3.536 0-6.4-2.88-6.4-6.4 0-3.536 2.864-6.4 6.4-6.4z"></path>
    </symbol>

    <symbol id="icon-reload" viewBox="0 0 32 32">
    <path fill="#94969c" style="fill: var(--color1, #94969c)" d="M14.933-1.067c-8.832 0-16 7.168-16 16h3.541c0-6.869 5.589-12.459 12.459-12.459 3.883 0 7.317 1.813 9.6 4.608l-4.267 4.288h10.667v-10.667l-3.861 3.84c-2.923-3.435-7.275-5.611-12.139-5.611zM27.371 14.933c0 6.848-5.589 12.437-12.437 12.437-3.904 0-7.339-1.813-9.621-4.608l4.288-4.288h-10.667v10.667l3.84-3.84c2.923 3.435 7.275 5.632 12.16 5.632 8.811 0 16-7.189 16-16h-3.563z"></path>
    </symbol>

    <symbol id="icon-download" viewBox="0 0 32 32">
    <path stroke-linejoin="round" stroke-linecap="round" stroke-miterlimit="4" stroke-width="2.56" d="M5.328 22.656v2.672c0 0.704 0.272 1.376 0.784 1.872 0.496 0.512 1.168 0.784 1.872 0.784h16c0.72 0 1.392-0.272 1.888-0.784 0.512-0.496 0.784-1.168 0.784-1.872v-2.672"></path>
    <path stroke-linejoin="round" stroke-linecap="round" stroke-miterlimit="4" stroke-width="2.56" d="M9.328 14.656l6.656 6.672 6.672-6.672"></path>
    <path stroke-linejoin="round" stroke-linecap="round" stroke-miterlimit="4" stroke-width="2.56" d="M16 5.328v16"></path>
    </symbol>
    <symbol id="icon-growth" viewBox="0 0 32 32">
    <path fill="#d1fd0a" style="fill: var(--color1, #d1fd0a)" d="M22.667 4.453c2 1.16 3.68 2.827 4.84 4.827 1.173 2.013 1.8 4.28 1.813 6.6 0.027 2.333-0.56 4.613-1.693 6.64-1.147 2.027-2.787 3.72-4.787 4.907-1.987 1.2-4.253 1.853-6.573 1.893-2.32 0.053-4.613-0.507-6.653-1.627-2.040-1.107-3.76-2.733-4.973-4.707s-1.893-4.24-1.973-6.56v-0.867c0.080-2.307 0.747-4.547 1.947-6.507 1.2-1.973 2.893-3.6 4.907-4.72 2.013-1.107 4.28-1.693 6.587-1.667 2.293 0.013 4.56 0.627 6.56 1.787z"></path>
    <path fill="none" stroke="#000" style="stroke: var(--color2, #000)" stroke-linejoin="round" stroke-linecap="round" stroke-miterlimit="4" stroke-width="2.6667" d="M8.88 20l3.56-5.333 3.56 1.773 3.547-4.44 3.56 3.547"></path>
    </symbol>

    <symbol id="icon-audience" viewBox="0 0 32 32">
    <path fill="#d1fd0a" style="fill: var(--color1, #d1fd0a)" d="M22.667 4.453c2 1.16 3.68 2.827 4.84 4.827 1.173 2.013 1.8 4.28 1.813 6.6 0.027 2.333-0.56 4.613-1.693 6.64-1.147 2.027-2.787 3.72-4.787 4.907-1.987 1.2-4.253 1.853-6.573 1.893-2.32 0.053-4.613-0.507-6.653-1.627-2.040-1.107-3.76-2.733-4.973-4.707s-1.893-4.24-1.973-6.56v-0.867c0.080-2.307 0.747-4.547 1.947-6.507 1.2-1.973 2.893-3.6 4.907-4.72 2.013-1.107 4.28-1.693 6.587-1.667 2.293 0.013 4.56 0.627 6.56 1.787z"></path>
    <path fill="none" stroke="#000" style="stroke: var(--color2, #000)" stroke-linejoin="round" stroke-linecap="butt" stroke-miterlimit="4" stroke-width="2.4" d="M11.467 14.307c0.573 0.587 1.373 0.907 2.2 0.907 0.813 0 1.613-0.32 2.2-0.907 0.573-0.587 0.907-1.373 0.907-2.2s-0.333-1.613-0.907-2.2c-0.587-0.587-1.387-0.907-2.2-0.907-0.827 0-1.627 0.32-2.2 0.907-0.587 0.587-0.92 1.373-0.92 2.2s0.333 1.613 0.92 2.2z"></path>
    <path fill="none" stroke="#000" style="stroke: var(--color2, #000)" stroke-linejoin="round" stroke-linecap="round" stroke-miterlimit="4" stroke-width="2.4" d="M9 23v-1.56c0-0.827 0.32-1.613 0.907-2.2s1.373-0.907 2.2-0.907h3.107c0.827 0 1.613 0.32 2.2 0.907s0.92 1.373 0.92 2.2v1.56"></path>
    <path fill="none" stroke="#000" style="stroke: var(--color2, #000)" stroke-linejoin="round" stroke-linecap="round" stroke-miterlimit="4" stroke-width="2.4" d="M19.107 9.093c0.667 0.173 1.267 0.56 1.68 1.107 0.427 0.547 0.653 1.227 0.653 1.907 0 0.693-0.227 1.36-0.653 1.907-0.413 0.547-1.013 0.947-1.68 1.107"></path>
    <path fill="none" stroke="#000" style="stroke: var(--color2, #000)" stroke-linejoin="round" stroke-linecap="round" stroke-miterlimit="4" stroke-width="2.4" d="M23 22.987v-1.547c-0.013-0.693-0.24-1.36-0.667-1.893-0.413-0.547-1.013-0.933-1.667-1.107"></path>
    </symbol>

    <symbol id="icon-related" viewBox="0 0 32 32">
    <path fill="#d1fd0a" style="fill: var(--color1, #d1fd0a)" d="M22.667 4.453c2 1.16 3.68 2.827 4.84 4.827 1.173 2.013 1.8 4.28 1.813 6.6 0.027 2.333-0.56 4.613-1.693 6.64-1.147 2.027-2.787 3.72-4.787 4.907-1.987 1.2-4.253 1.853-6.573 1.893-2.32 0.053-4.613-0.507-6.653-1.627-2.040-1.107-3.76-2.733-4.973-4.707s-1.893-4.24-1.973-6.56v-0.867c0.080-2.307 0.747-4.547 1.947-6.507 1.2-1.973 2.893-3.6 4.907-4.72 2.013-1.107 4.28-1.693 6.587-1.667 2.293 0.013 4.56 0.627 6.56 1.787z"></path>
    <path fill="#000" style="fill: var(--color2, #000)" d="M20.48 8.16c-0.867 0-1.733 0.32-2.387 0.973l-1.867 1.867c-0.92 0.933-1.187 2.28-0.8 3.453l1.333-1.347c0.067-0.387 0.227-0.747 0.52-1.040l1.867-1.867c0.373-0.373 0.853-0.547 1.333-0.547 0.467 0 0.947 0.173 1.307 0.547 0.733 0.72 0.733 1.907 0 2.627l-1.867 1.867c-0.293 0.307-0.653 0.467-1.040 0.52l-1.347 1.347c0.347 0.12 0.707 0.173 1.067 0.173 0.867 0 1.733-0.32 2.387-0.973l1.867-1.867c1.307-1.32 1.307-3.44 0-4.76-0.653-0.653-1.52-0.973-2.373-0.973zM18.213 13c-0.187 0-0.373 0.080-0.507 0.227l-4.48 4.48c-0.067 0.067-0.133 0.147-0.173 0.24s-0.053 0.187-0.053 0.293c0 0.093 0.013 0.2 0.053 0.28 0.040 0.093 0.093 0.187 0.16 0.253s0.16 0.12 0.253 0.16c0.080 0.040 0.187 0.053 0.28 0.053 0.107 0 0.2-0.013 0.293-0.053s0.173-0.107 0.24-0.173l4.48-4.48c0.107-0.107 0.187-0.24 0.213-0.387s0.013-0.293-0.040-0.44c-0.067-0.133-0.16-0.253-0.293-0.333-0.12-0.080-0.267-0.12-0.427-0.12zM13.547 15.253c-0.92-0.040-1.84 0.28-2.547 0.973l-1.867 1.867c-1.307 1.32-1.307 3.44 0 4.76 0.653 0.653 1.52 0.973 2.387 0.973 0.853 0 1.72-0.32 2.373-0.973l1.867-1.867c0.92-0.933 1.187-2.28 0.8-3.453l-1.347 1.347c-0.053 0.387-0.213 0.747-0.52 1.040l-1.867 1.867c-0.72 0.733-1.907 0.733-2.627 0-0.733-0.72-0.733-1.907 0-2.627l1.867-1.867c0.293-0.307 0.653-0.467 1.040-0.533l1.347-1.333c-0.293-0.093-0.6-0.16-0.907-0.173z"></path>
    </symbol>

    <symbol id="icon-recom" viewBox="0 0 32 32">
<path fill="#d1fd0a" style="fill: var(--color1, #d1fd0a)" d="M22.667 4.453c2 1.16 3.68 2.827 4.84 4.827 1.173 2.013 1.8 4.28 1.813 6.6 0.027 2.333-0.56 4.613-1.693 6.64-1.147 2.027-2.787 3.72-4.787 4.907-1.987 1.2-4.253 1.853-6.573 1.893-2.32 0.053-4.613-0.507-6.653-1.627-2.040-1.107-3.76-2.733-4.973-4.707s-1.893-4.24-1.973-6.56v-0.867c0.080-2.307 0.747-4.547 1.947-6.507 1.2-1.973 2.893-3.6 4.907-4.72 2.013-1.107 4.28-1.693 6.587-1.667 2.293 0.013 4.56 0.627 6.56 1.787z"></path>
<path fill="#000" style="fill: var(--color2, #000)" d="M18.333 11.333l-1.667 4-4 1.667 4 1.667 1.667 4 1.667-4 4-1.667-4-1.667-1.667-4zM10.747 13.24l0.92 2.76 0.907-2.76 2.76-0.907-2.76-0.92-0.907-2.747-0.92 2.747-2.747 0.92 2.747 0.907zM12.24 20.413l-0.573-1.747-0.587 1.747-1.747 0.587 1.747 0.573 0.587 1.76 0.573-1.76 1.76-0.573-1.76-0.587z"></path>
</symbol>
</defs>
</svg>