<svg aria-hidden="true" style="position: absolute; width: 0; height: 0; overflow: hidden;" version="1.1" xmlns="http://www.w3.org/2000/svg" xmlns:xlink="http://www.w3.org/1999/xlink">
<defs>

    <symbol id="burger" viewBox="0 0 46 32">
    <path fill="#fff" style="fill: var(--color1, #fff)" d="M0 0v4.571h45.714v-4.571h-45.714zM0 13.714v4.571h45.714v-4.571h-45.714zM0 27.429v4.571h45.714v-4.571h-45.714z"></path>
    </symbol>
    <symbol id="ring" viewBox="0 0 28 32">
    <path d="M13.076-0.582c-1.382 0-2.516 1.12-2.516 2.516v0.335c-4.349 1.12-7.564 5.047-7.564 9.745v3.025c0 2.007-0.407 3.971-1.178 5.804h22.531c-0.771-1.833-1.178-3.796-1.178-5.804v-3.025c0-4.698-3.215-8.625-7.564-9.745v-0.335c0-1.396-1.135-2.516-2.531-2.516zM0.48 23.36c-0.175 0-0.335 0.029-0.495 0.102-0.145 0.058-0.291 0.145-0.407 0.262s-0.218 0.262-0.276 0.422c-0.073 0.145-0.102 0.32-0.102 0.48s0.029 0.335 0.102 0.48c0.058 0.16 0.16 0.305 0.276 0.422s0.262 0.204 0.407 0.262c0.16 0.073 0.32 0.102 0.495 0.102h9.047c-0.145 0.393-0.218 0.829-0.233 1.251 0 1.004 0.407 1.964 1.12 2.676 0.698 0.713 1.673 1.105 2.662 1.105 1.004 0 1.978-0.393 2.676-1.105 0.713-0.713 1.105-1.673 1.105-2.676 0-0.422-0.073-0.858-0.218-1.251h9.047c0.175 0 0.335-0.029 0.495-0.102 0.145-0.058 0.291-0.145 0.407-0.262s0.218-0.262 0.276-0.422c0.073-0.145 0.102-0.32 0.102-0.48s-0.029-0.335-0.102-0.48c-0.058-0.16-0.16-0.305-0.276-0.422s-0.262-0.204-0.407-0.262c-0.16-0.073-0.32-0.102-0.495-0.102h-25.207z"></path>
    </symbol>
    <symbol id="setting" viewBox="0 0 30 32">
    <path d="M11.984 0c-0.768 0-1.424 0.528-1.568 1.28l-0.544 2.752c-1.312 0.496-2.528 1.184-3.6 2.064l-2.624-0.912c-0.72-0.24-1.52 0.048-1.904 0.72l-2.416 4.176c-0.384 0.672-0.24 1.504 0.336 2.016l2.112 1.824c-0.112 0.688-0.176 1.36-0.176 2.080 0 0.704 0.064 1.376 0.176 2.064l-2.112 1.824c-0.576 0.512-0.72 1.344-0.336 2.016l2.416 4.176c0.384 0.672 1.184 0.96 1.904 0.72l2.624-0.912c1.072 0.88 2.288 1.568 3.6 2.064l0.544 2.752c0.144 0.752 0.8 1.296 1.568 1.296h4.832c0.752 0 1.408-0.544 1.568-1.296l0.528-2.752c1.312-0.496 2.528-1.184 3.6-2.064l2.624 0.912c0.72 0.24 1.52-0.048 1.904-0.72l2.416-4.176c0.384-0.672 0.24-1.504-0.336-2.016l-2.112-1.824c0.112-0.688 0.192-1.36 0.192-2.064 0-0.72-0.080-1.392-0.192-2.080l2.112-1.824c0.576-0.512 0.72-1.344 0.336-2.016l-2.416-4.176c-0.384-0.672-1.184-0.96-1.904-0.72l-2.624 0.912c-1.072-0.88-2.288-1.568-3.6-2.064l-0.528-2.752c-0.16-0.752-0.816-1.28-1.568-1.28h-4.832zM14.4 9.6c3.52 0 6.4 2.864 6.4 6.4 0 3.52-2.88 6.4-6.4 6.4-3.536 0-6.4-2.88-6.4-6.4 0-3.536 2.864-6.4 6.4-6.4z"></path>
    </symbol>

    <symbol id="icon-reload" viewBox="0 0 32 32">
    <path fill="#94969c" style="fill: var(--color1, #94969c)" d="M14.933-1.067c-8.832 0-16 7.168-16 16h3.541c0-6.869 5.589-12.459 12.459-12.459 3.883 0 7.317 1.813 9.6 4.608l-4.267 4.288h10.667v-10.667l-3.861 3.84c-2.923-3.435-7.275-5.611-12.139-5.611zM27.371 14.933c0 6.848-5.589 12.437-12.437 12.437-3.904 0-7.339-1.813-9.621-4.608l4.288-4.288h-10.667v10.667l3.84-3.84c2.923 3.435 7.275 5.632 12.16 5.632 8.811 0 16-7.189 16-16h-3.563z"></path>
    </symbol>

    <symbol id="icon-download" viewBox="0 0 32 32">
    <path stroke-linejoin="round" stroke-linecap="round" stroke-miterlimit="4" stroke-width="2.56" d="M5.328 22.656v2.672c0 0.704 0.272 1.376 0.784 1.872 0.496 0.512 1.168 0.784 1.872 0.784h16c0.72 0 1.392-0.272 1.888-0.784 0.512-0.496 0.784-1.168 0.784-1.872v-2.672"></path>
    <path stroke-linejoin="round" stroke-linecap="round" stroke-miterlimit="4" stroke-width="2.56" d="M9.328 14.656l6.656 6.672 6.672-6.672"></path>
    <path stroke-linejoin="round" stroke-linecap="round" stroke-miterlimit="4" stroke-width="2.56" d="M16 5.328v16"></path>
    </symbol>
    <symbol id="icon-growth" viewBox="0 0 32 32">
    <path fill="#d1fd0a" style="fill: var(--color1, #d1fd0a)" d="M22.667 4.453c2 1.16 3.68 2.827 4.84 4.827 1.173 2.013 1.8 4.28 1.813 6.6 0.027 2.333-0.56 4.613-1.693 6.64-1.147 2.027-2.787 3.72-4.787 4.907-1.987 1.2-4.253 1.853-6.573 1.893-2.32 0.053-4.613-0.507-6.653-1.627-2.040-1.107-3.76-2.733-4.973-4.707s-1.893-4.24-1.973-6.56v-0.867c0.080-2.307 0.747-4.547 1.947-6.507 1.2-1.973 2.893-3.6 4.907-4.72 2.013-1.107 4.28-1.693 6.587-1.667 2.293 0.013 4.56 0.627 6.56 1.787z"></path>
    <path fill="none" stroke="#000" style="stroke: var(--color2, #000)" stroke-linejoin="round" stroke-linecap="round" stroke-miterlimit="4" stroke-width="2.6667" d="M8.88 20l3.56-5.333 3.56 1.773 3.547-4.44 3.56 3.547"></path>
    </symbol>

    <symbol id="icon-audience" viewBox="0 0 32 32">
    <path fill="#d1fd0a" style="fill: var(--color1, #d1fd0a)" d="M22.667 4.453c2 1.16 3.68 2.827 4.84 4.827 1.173 2.013 1.8 4.28 1.813 6.6 0.027 2.333-0.56 4.613-1.693 6.64-1.147 2.027-2.787 3.72-4.787 4.907-1.987 1.2-4.253 1.853-6.573 1.893-2.32 0.053-4.613-0.507-6.653-1.627-2.040-1.107-3.76-2.733-4.973-4.707s-1.893-4.24-1.973-6.56v-0.867c0.080-2.307 0.747-4.547 1.947-6.507 1.2-1.973 2.893-3.6 4.907-4.72 2.013-1.107 4.28-1.693 6.587-1.667 2.293 0.013 4.56 0.627 6.56 1.787z"></path>
    <path fill="none" stroke="#000" style="stroke: var(--color2, #000)" stroke-linejoin="round" stroke-linecap="butt" stroke-miterlimit="4" stroke-width="2.4" d="M11.467 14.307c0.573 0.587 1.373 0.907 2.2 0.907 0.813 0 1.613-0.32 2.2-0.907 0.573-0.587 0.907-1.373 0.907-2.2s-0.333-1.613-0.907-2.2c-0.587-0.587-1.387-0.907-2.2-0.907-0.827 0-1.627 0.32-2.2 0.907-0.587 0.587-0.92 1.373-0.92 2.2s0.333 1.613 0.92 2.2z"></path>
    <path fill="none" stroke="#000" style="stroke: var(--color2, #000)" stroke-linejoin="round" stroke-linecap="round" stroke-miterlimit="4" stroke-width="2.4" d="M9 23v-1.56c0-0.827 0.32-1.613 0.907-2.2s1.373-0.907 2.2-0.907h3.107c0.827 0 1.613 0.32 2.2 0.907s0.92 1.373 0.92 2.2v1.56"></path>
    <path fill="none" stroke="#000" style="stroke: var(--color2, #000)" stroke-linejoin="round" stroke-linecap="round" stroke-miterlimit="4" stroke-width="2.4" d="M19.107 9.093c0.667 0.173 1.267 0.56 1.68 1.107 0.427 0.547 0.653 1.227 0.653 1.907 0 0.693-0.227 1.36-0.653 1.907-0.413 0.547-1.013 0.947-1.68 1.107"></path>
    <path fill="none" stroke="#000" style="stroke: var(--color2, #000)" stroke-linejoin="round" stroke-linecap="round" stroke-miterlimit="4" stroke-width="2.4" d="M23 22.987v-1.547c-0.013-0.693-0.24-1.36-0.667-1.893-0.413-0.547-1.013-0.933-1.667-1.107"></path>
    </symbol>

    <symbol id="icon-related" viewBox="0 0 32 32">
    <path fill="#d1fd0a" style="fill: var(--color1, #d1fd0a)" d="M22.667 4.453c2 1.16 3.68 2.827 4.84 4.827 1.173 2.013 1.8 4.28 1.813 6.6 0.027 2.333-0.56 4.613-1.693 6.64-1.147 2.027-2.787 3.72-4.787 4.907-1.987 1.2-4.253 1.853-6.573 1.893-2.32 0.053-4.613-0.507-6.653-1.627-2.040-1.107-3.76-2.733-4.973-4.707s-1.893-4.24-1.973-6.56v-0.867c0.080-2.307 0.747-4.547 1.947-6.507 1.2-1.973 2.893-3.6 4.907-4.72 2.013-1.107 4.28-1.693 6.587-1.667 2.293 0.013 4.56 0.627 6.56 1.787z"></path>
    <path fill="#000" style="fill: var(--color2, #000)" d="M20.48 8.16c-0.867 0-1.733 0.32-2.387 0.973l-1.867 1.867c-0.92 0.933-1.187 2.28-0.8 3.453l1.333-1.347c0.067-0.387 0.227-0.747 0.52-1.040l1.867-1.867c0.373-0.373 0.853-0.547 1.333-0.547 0.467 0 0.947 0.173 1.307 0.547 0.733 0.72 0.733 1.907 0 2.627l-1.867 1.867c-0.293 0.307-0.653 0.467-1.040 0.52l-1.347 1.347c0.347 0.12 0.707 0.173 1.067 0.173 0.867 0 1.733-0.32 2.387-0.973l1.867-1.867c1.307-1.32 1.307-3.44 0-4.76-0.653-0.653-1.52-0.973-2.373-0.973zM18.213 13c-0.187 0-0.373 0.080-0.507 0.227l-4.48 4.48c-0.067 0.067-0.133 0.147-0.173 0.24s-0.053 0.187-0.053 0.293c0 0.093 0.013 0.2 0.053 0.28 0.040 0.093 0.093 0.187 0.16 0.253s0.16 0.12 0.253 0.16c0.080 0.040 0.187 0.053 0.28 0.053 0.107 0 0.2-0.013 0.293-0.053s0.173-0.107 0.24-0.173l4.48-4.48c0.107-0.107 0.187-0.24 0.213-0.387s0.013-0.293-0.040-0.44c-0.067-0.133-0.16-0.253-0.293-0.333-0.12-0.080-0.267-0.12-0.427-0.12zM13.547 15.253c-0.92-0.040-1.84 0.28-2.547 0.973l-1.867 1.867c-1.307 1.32-1.307 3.44 0 4.76 0.653 0.653 1.52 0.973 2.387 0.973 0.853 0 1.72-0.32 2.373-0.973l1.867-1.867c0.92-0.933 1.187-2.28 0.8-3.453l-1.347 1.347c-0.053 0.387-0.213 0.747-0.52 1.040l-1.867 1.867c-0.72 0.733-1.907 0.733-2.627 0-0.733-0.72-0.733-1.907 0-2.627l1.867-1.867c0.293-0.307 0.653-0.467 1.040-0.533l1.347-1.333c-0.293-0.093-0.6-0.16-0.907-0.173z"></path>
    </symbol>

    <symbol id="icon-recom" viewBox="0 0 32 32">
    <path fill="#d1fd0a" style="fill: var(--color1, #d1fd0a)" d="M22.667 4.453c2 1.16 3.68 2.827 4.84 4.827 1.173 2.013 1.8 4.28 1.813 6.6 0.027 2.333-0.56 4.613-1.693 6.64-1.147 2.027-2.787 3.72-4.787 4.907-1.987 1.2-4.253 1.853-6.573 1.893-2.32 0.053-4.613-0.507-6.653-1.627-2.040-1.107-3.76-2.733-4.973-4.707s-1.893-4.24-1.973-6.56v-0.867c0.080-2.307 0.747-4.547 1.947-6.507 1.2-1.973 2.893-3.6 4.907-4.72 2.013-1.107 4.28-1.693 6.587-1.667 2.293 0.013 4.56 0.627 6.56 1.787z"></path>
    <path fill="#000" style="fill: var(--color2, #000)" d="M18.333 11.333l-1.667 4-4 1.667 4 1.667 1.667 4 1.667-4 4-1.667-4-1.667-1.667-4zM10.747 13.24l0.92 2.76 0.907-2.76 2.76-0.907-2.76-0.92-0.907-2.747-0.92 2.747-2.747 0.92 2.747 0.907zM12.24 20.413l-0.573-1.747-0.587 1.747-1.747 0.587 1.747 0.573 0.587 1.76 0.573-1.76 1.76-0.573-1.76-0.587z"></path>
    </symbol>

    <symbol id="icon-beauty" viewBox="0 0 30 32">
    <path d="M23.865-0.573c-0.758 0-1.432 0.505-1.617 1.246l-1.465 5.491h-5.406c-2.307 0-4.345 1.381-5.187 3.486l-1.954 4.379h-2.072c-0.775 0-1.482 0.303-1.987 0.808-0.472 0.472-0.775 1.112-0.808 1.819-0.101 1.634 1.347 2.981 2.981 2.981h5.996v6.888c-3.874 0.488-6.737 2.24-6.737 4.345h17.971c0-2.105-2.88-3.857-6.737-4.345v-6.888h5.709c0.438 0 0.859-0.185 1.179-0.488l0.589-0.589c0.202-0.202 0.354-0.472 0.438-0.775l4.059-16.269c0.135-0.505 0.017-1.027-0.303-1.448-0.32-0.404-0.808-0.64-1.331-0.64h-3.318zM15.377 8.404h4.8l-1.482 5.625h-8l1.566-3.503c0.505-1.28 1.735-2.122 3.116-2.122zM5.069 21.878l-0.488 1.246c-0.522 1.297-1.752 2.122-3.149 2.122h-0.32c-0.623 0-1.112 0.505-1.112 1.128s0.488 1.128 1.112 1.128h0.32c2.324 0 4.362-1.381 5.221-3.537l0.842-2.088h-1.886c-0.185 0-0.371 0-0.539 0z"></path>
    </symbol>
    <symbol id="icon-music" viewBox="0 0 36 32">
    <path d="M11.402 1.023c-0.359 0-0.699 0.14-0.939 0.379-0.26 0.26-0.399 0.579-0.399 0.939v1.338c0 0.18 0.040 0.339 0.1 0.519 0.080 0.16 0.16 0.3 0.3 0.439 0.12 0.12 0.26 0.22 0.419 0.28 0.18 0.080 0.339 0.1 0.519 0.1s0.359-0.020 0.519-0.1c0.16-0.060 0.3-0.16 0.439-0.28 0.12-0.14 0.22-0.28 0.28-0.439 0.060-0.18 0.1-0.339 0.1-0.519h10.643c0 0.18 0.040 0.339 0.1 0.519 0.060 0.16 0.16 0.3 0.28 0.439 0.14 0.12 0.28 0.22 0.439 0.28 0.16 0.080 0.339 0.1 0.519 0.1s0.339-0.020 0.519-0.1c0.16-0.060 0.3-0.16 0.419-0.28 0.12-0.14 0.22-0.28 0.3-0.439 0.060-0.18 0.1-0.339 0.080-0.519v-1.338c0-0.359-0.14-0.679-0.379-0.939-0.26-0.24-0.599-0.379-0.939-0.379h-13.319zM3.414 7.673c-1.478 0-2.656 1.198-2.656 2.656v17.313c0 1.478 1.178 2.656 2.656 2.656h29.295c1.458 0 2.656-1.178 2.656-2.656v-17.313c0-1.458-1.198-2.656-2.656-2.656h-5.332c0 0.739-0.599 1.338-1.338 1.338-0.719 0-1.318-0.599-1.318-1.338h-2.676c0 0.739-0.579 1.338-1.318 1.338s-1.338-0.599-1.338-1.338h-2.656c0 0.739-0.599 1.338-1.338 1.338s-1.338-0.599-1.338-1.338h-2.656c0 0.739-0.599 1.338-1.338 1.338-0.719 0-1.318-0.599-1.318-1.338h-5.332zM7.408 15.661c2.217 0 3.994 1.777 3.994 3.994 0 2.197-1.777 3.994-3.994 3.994-2.197 0-3.994-1.797-3.994-3.994 0-2.217 1.797-3.994 3.994-3.994zM15.396 15.661h5.332c0.739 0 1.318 0.599 1.318 1.338v2.656c0 0.739-0.579 1.338-1.318 1.338h-5.332c-0.739 0-1.338-0.599-1.338-1.338v-2.656c0-0.739 0.599-1.338 1.338-1.338zM28.715 15.661c2.197 0 3.994 1.777 3.994 3.994 0 2.197-1.797 3.994-3.994 3.994-2.217 0-3.994-1.797-3.994-3.994 0-2.217 1.777-3.994 3.994-3.994z"></path>
    </symbol>
    <symbol id="icon-other" viewBox="0 0 32 32">
    <path d="M16.101 0.421c-8.089 0-14.681 6.591-14.681 14.681 0 8.107 6.591 14.698 14.681 14.698 8.107 0 14.698-6.591 14.698-14.698 0-8.089-6.591-14.681-14.698-14.681zM8.77 16.934c-1.022 0-1.833-0.811-1.833-1.833 0-1.005 0.811-1.833 1.833-1.833 1.005 0 1.833 0.828 1.833 1.833 0 1.022-0.828 1.833-1.833 1.833zM16.101 16.934c-1.005 0-1.833-0.811-1.833-1.833 0-1.005 0.828-1.833 1.833-1.833 1.022 0 1.851 0.828 1.851 1.833 0 1.022-0.828 1.833-1.851 1.833zM23.45 16.934c-1.005 0-1.833-0.811-1.833-1.833 0-1.005 0.828-1.833 1.833-1.833 1.022 0 1.833 0.828 1.833 1.833 0 1.022-0.811 1.833-1.833 1.833z"></path>
    </symbol>
    <symbol id="icon-health" viewBox="0 0 32 32">
    <path d="M15.842 0.695c-2.446 0-4.418 1.972-4.418 4.418 0 3.771 8.205 9.467 8.205 9.467s8.205-5.728 8.205-9.467c0-2.446-1.988-4.418-4.418-4.418-1.609 0-3.029 0.852-3.787 2.146-0.773-1.294-2.177-2.146-3.787-2.146zM28.481 16.489c-0.458 0.032-0.899 0.221-1.247 0.568l-6.343 6.359h-6.311l-1.262-1.262 4.844-0.978c0.71-0.142 1.294-0.663 1.42-1.373 0.205-1.104-0.631-2.067-1.688-2.067h-8.804c-1.341 0-2.619 0.521-3.566 1.467l-5.459 5.475 5.68 5.68 2.146-2.162c0.237-0.237 0.552-0.363 0.884-0.363h11.692c0.678 0 1.31-0.284 1.783-0.757l7.574-7.574c0.71-0.726 0.71-1.893-0.063-2.588-0.363-0.316-0.82-0.458-1.278-0.426z"></path>
    </symbol>
    <symbol id="icon-sport" viewBox="0 0 27 32">
    <path d="M15.95 1c-1.665 0-3 1.335-3 3 0 1.65 1.335 3 3 3 1.65 0 3-1.35 3-3 0-1.665-1.35-3-3-3zM10.895 6.445c-0.105 0-0.165 0.030-0.165 0.030s-6.69 0.81-8.925 1.185c-1.92 0.345-1.725 1.83 0 1.815 1.635-0.030 8.4 0 8.4 0s-4.47 9.405-5.73 12.165c-0.33 0.69-0.165 1.59 0.63 1.935 0.96 0.42 1.545-0.285 1.92-0.855 0.525-0.825 3.27-5.61 3.495-5.58 0.33 0.045-4.005 10.905-4.275 11.805-0.27 0.915-0.090 1.695 0.78 1.95 1.14 0.36 1.56-0.45 1.83-1.080 0.27-0.645 7.32-17.31 7.32-17.31s2.64 1.245 3.48 1.575c0.84 0.33 1.29-0.015 1.485-0.18 0.495-0.39 2.91-2.19 3.66-2.82 0.735-0.63 1.575-1.515 0.72-2.355-0.48-0.48-1.245 0.105-1.245 0.105l-3.645 2.775c0 0-2.595-1.86-3.525-2.4-1.14-0.66-3.63-2.010-4.44-2.415-0.645-0.33-1.425-0.345-1.77-0.345zM17.15 25c-1.665 0-3 1.335-3 3 0 1.65 1.335 3 3 3 1.65 0 3-1.35 3-3 0-1.665-1.35-3-3-3z"></path>
    </symbol>
    <symbol id="icon-show" viewBox="0 0 32 32">
    <path d="M16.197 0.718c-7.988 0-14.495 6.491-14.495 14.495 0 7.988 6.507 14.495 14.495 14.495 8.004 0 14.495-6.507 14.495-14.495 0-8.004-6.491-14.495-14.495-14.495zM20.687 6.122l0.677-1.134c0.173-0.284 0.567-0.394 0.867-0.205 0.299 0.173 0.394 0.567 0.221 0.867l-0.677 1.119c-0.126 0.205-0.331 0.315-0.551 0.315-0.11 0-0.221-0.032-0.315-0.095-0.299-0.173-0.394-0.567-0.221-0.867zM15.566 3.79c0-0.347 0.284-0.63 0.63-0.63 0.362 0 0.63 0.284 0.63 0.63v1.308c0 0.347-0.268 0.63-0.63 0.63-0.347 0-0.63-0.284-0.63-0.63v-1.308zM5.845 9.115c0.173-0.299 0.567-0.394 0.867-0.221l1.119 0.677c0.299 0.189 0.41 0.567 0.221 0.867-0.11 0.205-0.331 0.299-0.536 0.299-0.11 0-0.221-0.016-0.331-0.079l-1.119-0.677c-0.299-0.189-0.394-0.567-0.221-0.867zM4.223 15.133c0-0.347 0.284-0.63 0.63-0.63h1.308c0.347 0 0.63 0.284 0.63 0.63s-0.284 0.63-0.63 0.63h-1.308c-0.347 0-0.63-0.284-0.63-0.63zM7.83 20.695l-1.119 0.677c-0.11 0.063-0.221 0.095-0.331 0.095-0.205 0-0.425-0.11-0.536-0.299-0.173-0.299-0.079-0.693 0.221-0.867l1.119-0.677c0.299-0.173 0.693-0.079 0.867 0.221 0.189 0.299 0.079 0.677-0.221 0.851zM11.501 6.988c-0.095 0.063-0.205 0.095-0.315 0.095-0.221 0-0.425-0.11-0.551-0.315l-0.677-1.119c-0.173-0.299-0.079-0.693 0.221-0.867 0.299-0.189 0.693-0.079 0.867 0.221l0.677 1.119c0.173 0.299 0.079 0.693-0.221 0.867zM17.362 16.693c-0.315 0.252-0.709 0.41-1.166 0.41-1.071 0-1.891-0.819-1.891-1.891 0-0.851 0.536-1.544 1.276-1.796v0l10.903-4.207-9.107 7.499-0.016-0.016zM26.563 21.168c-0.11 0.189-0.331 0.299-0.536 0.299-0.11 0-0.221-0.032-0.331-0.095l-1.119-0.677c-0.299-0.173-0.41-0.551-0.221-0.851 0.173-0.299 0.567-0.41 0.867-0.221l1.119 0.677c0.299 0.173 0.394 0.567 0.221 0.867zM27.54 15.764h-1.292c-0.347 0-0.63-0.284-0.63-0.63s0.284-0.63 0.63-0.63h1.292c0.362 0 0.63 0.284 0.63 0.63s-0.268 0.63-0.63 0.63z"></path>
    </symbol>
    <symbol id="icon-travel" viewBox="0 0 32 32">
    <path d="M10.139 1.044c-4.132 0-7.478 3.346-7.478 7.478 0 0.636 0.093 1.253 0.243 1.87 0.823-3.234 3.758-5.609 7.235-5.609 1.701 0 3.253 0.561 4.506 1.514-1.103-0.299-2.318-0.374-3.571-0.112-2.86 0.58-5.179 2.879-5.758 5.739-0.355 1.72-0.112 3.346 0.542 4.749 0.43 0.897 1.832 0.617 1.795-0.393-0.037-0.692 0.037-1.421 0.224-2.15 0.636-2.636 2.748-4.749 5.384-5.384 0.617-0.15 1.215-0.224 1.813-0.224-0.879 11.516-13.666 16.19-13.666 16.19v2.505c0 1.365 1.122 2.486 2.505 2.486h22.434c1.365 0 2.486-1.122 2.486-2.486v-2.505c0 0-1.253 1.253-2.486 1.253-1.253 0-2.505-1.253-2.505-1.253s-1.234 1.253-2.486 1.253c-1.253 0-2.486-1.253-2.486-1.253s-1.253 1.253-2.505 1.253c-1.234 0-2.486-1.253-2.486-1.253h-2.374c0 0 6.057-4.206 6.113-16.078 0.206 0.037 0.43 0.056 0.636 0.112 2.617 0.654 4.711 2.748 5.366 5.366 0.187 0.729 0.243 1.458 0.224 2.169-0.037 0.991 1.365 1.29 1.795 0.374 0.654-1.383 0.897-3.010 0.542-4.711-0.561-2.767-2.73-4.992-5.44-5.683 0.598-0.15 1.215-0.243 1.87-0.243 3.477 0 6.394 2.393 7.216 5.609 0.168-0.598 0.262-1.215 0.262-1.87 0-4.132-3.365-7.478-7.478-7.478-2.374 0-4.45 1.103-5.833 2.804-1.234-2.393-3.739-4.038-6.637-4.038z"></path>
    </symbol>
</defs>
</svg>